<?xml version="1.0" encoding="UTF-8" standalone="no"?>
<!-- Created with Inkscape (http://www.inkscape.org/) -->

<svg
   width="98.72139mm"
   height="15.578667mm"
   viewBox="0 0 98.72139 15.578667"
   version="1.1"
   id="svg5"
   inkscape:export-filename="logo.svg"
   inkscape:export-xdpi="96"
   inkscape:export-ydpi="96"
   xmlns:inkscape="http://www.inkscape.org/namespaces/inkscape"
   xmlns:sodipodi="http://sodipodi.sourceforge.net/DTD/sodipodi-0.dtd"
   xmlns="http://www.w3.org/2000/svg"
   xmlns:svg="http://www.w3.org/2000/svg">
  <sodipodi:namedview
     id="namedview7"
     pagecolor="#505050"
     bordercolor="#ffffff"
     borderopacity="1"
     inkscape:showpageshadow="0"
     inkscape:pageopacity="0"
     inkscape:pagecheckerboard="1"
     inkscape:deskcolor="#505050"
     inkscape:document-units="mm"
     showgrid="false" />
  <defs
     id="defs2">
    <rect
       x="-0.62183726"
       y="-0.28557745"
       width="609.23981"
       height="207.84708"
       id="rect125" />
  </defs>
  <g
     inkscape:label="Layer 1"
     inkscape:groupmode="layer"
     id="layer1"
     transform="translate(-4.6417581e-4,-4.3775981e-4)">
    <g
       aria-label="&lt;sdl2-gdk&gt;"
       transform="matrix(0.26458333,0,0,0.26458333,-1.2745381,-2.5949631)"
       id="text123"
       style="font-size:64px;font-family:'JetBrainsMono Nerd Font Mono';-inkscape-font-specification:'JetBrainsMono Nerd Font Mono';white-space:pre;shape-inside:url(#rect125);mix-blend-mode:darken;stroke-width:1.00157">
      <path
         d="m 32.338906,53.009389 -27.5199997,-13.76 v -6.4 l 27.5199997,-13.76 v 5.568 l -19.84,9.728 q -1.216,0.576 -2.304,1.024 -1.0239997,0.384 -1.5359998,0.512 0.5760001,0.128 1.6639998,0.576 1.088,0.384 2.176,0.96 l 19.84,9.792 z"
         style="fill:#3585dc"
         id="path2927" />
      <path
         d="m 55.570931,57.681389 q -5.888,0 -9.152,-2.624 -3.2,-2.688 -3.2,-7.552 h 5.76 q 0,2.432 1.728,3.84 1.728,1.344 4.864,1.344 h 2.816 q 3.2,0 4.928,-1.408 1.792,-1.408 1.792,-3.968 0,-4.544 -4.16,-5.12 l -9.728,-1.408 q -3.584,-0.512 -5.568,-2.944 -1.984,-2.496 -1.984,-6.528 0,-4.608 3.136,-7.232 3.2,-2.624 8.768,-2.624 h 2.816 q 5.12,0 8.32,2.56 3.264,2.496 3.52,6.592 h -5.824 q -0.128,-1.856 -1.792,-3.072 -1.6,-1.216 -4.224,-1.216 h -2.816 q -2.944,0 -4.608,1.344 -1.664,1.344 -1.664,3.648 0,3.712 3.392,4.224 l 9.088,1.28 q 8.96,1.28 8.96,10.496 0,4.928 -3.264,7.68 -3.2,2.688 -9.088,2.688 z"
         style="opacity:1;fill:#d47e51"
         id="path2929" />
      <path
         d="m 93.330955,57.809389 q -5.248,0 -8.448,-3.52 -3.136,-3.52 -3.136,-9.536 v -10.304 q 0,-6.08 3.136,-9.6 3.136,-3.52 8.448,-3.52 3.968,0 6.528,1.984 2.624005,1.984 3.136005,5.376 h 0.064 l -0.128,-8 v -10.24 h 5.76 v 46.72 h -5.76 v -6.72 h -0.064 q -0.448,3.456 -3.008005,5.44 -2.56,1.92 -6.528,1.92 z m 1.92,-4.992 q 3.584,0 5.632005,-2.24 2.048,-2.24 2.048,-6.208 v -9.6 q 0,-3.968 -2.048,-6.208 -2.048005,-2.24 -5.632005,-2.24 -3.648,0 -5.696,1.92 -2.048,1.856 -2.048,6.208 v 10.24 q 0,4.288 2.048,6.208 2.048,1.92 5.696,1.92 z"
         style="opacity:1;fill:#d47e51"
         id="path2931" />
      <path
         d="m 138.89898,57.169389 q -4.672,0 -7.488,-2.688 -2.752,-2.752 -2.752,-7.232 v -31.552 h -12.16 v -5.248 h 17.92 v 36.8 q 0,2.176 1.216,3.456 1.216,1.216 3.264,1.216 h 10.88 v 5.248 z"
         style="opacity:1;fill:#d47e51"
         id="path2933" />
      <path
         d="m 158.483,57.169389 v -5.312 l 15.552,-16.64 q 3.392,-3.584 4.8,-6.4 1.408,-2.816 1.408,-5.504 0,-3.84 -2.24,-6.08 -2.176,-2.304 -5.952,-2.304 -3.904,0 -6.208,2.368 -2.24,2.304 -2.24,6.272 h -5.76 q 0.192,-6.336 4.032,-10.048 3.84,-3.7119998 10.176,-3.7119998 6.464,0 10.24,3.6479998 3.84,3.648 3.84,9.92 0,3.328 -1.856,7.04 -1.792,3.712 -6.208,8.32 l -12.608,13.184 h 21.248 v 5.248 z"
         style="opacity:1;fill:#d47e51"
         id="path2935" />
      <path
         d="m 200.33903,38.609389 v -5.12 h 20.48 v 5.12 z"
         style="opacity:1;fill:#d47e51"
         id="path2937" />
      <path
         d="m 240.08305,68.689389 v -5.248 h 9.92 q 3.008,0 4.736,-1.728 1.728,-1.664 1.728,-4.544 v -3.2 l 0.128,-5.76 h -0.192 q -0.512,3.136 -3.008,4.864 -2.496,1.664 -6.272,1.664 -5.44,0 -8.576,-3.456 -3.136,-3.456 -3.136,-9.472 v -7.424 q 0,-6.016 3.136,-9.536 3.136,-3.52 8.576,-3.52 3.776,0 6.272,1.792 2.496,1.792 3.008,4.928 h 0.128 v -6.08 h 5.696 v 35.2 q 0,5.312 -3.328,8.384 -3.264,3.136 -8.96,3.136 z m 8.768,-18.752 q 3.584,0 5.632,-2.24 2.048,-2.24 2.048,-6.208 v -6.72 q 0,-3.968 -2.048,-6.208 -2.048,-2.24 -5.632,-2.24 -3.648,0 -5.696,2.112 -1.984,2.112 -1.984,5.696 v 8 q 0,3.584 1.984,5.696 2.048,2.112 5.696,2.112 z"
         style="opacity:1;fill:#d47e51"
         id="path2939" />
      <path
         d="m 285.33108,57.809389 q -5.248,0 -8.448,-3.52 -3.136,-3.52 -3.136,-9.536 v -10.304 q 0,-6.08 3.136,-9.6 3.136,-3.52 8.448,-3.52 3.968,0 6.528,1.984 2.624,1.984 3.136,5.376 h 0.064 l -0.128,-8 v -10.24 h 5.76 v 46.72 h -5.76 v -6.72 h -0.064 q -0.448,3.456 -3.008,5.44 -2.56,1.92 -6.528,1.92 z m 1.92,-4.992 q 3.584,0 5.632,-2.24 2.048,-2.24 2.048,-6.208 v -9.6 q 0,-3.968 -2.048,-6.208 -2.048,-2.24 -5.632,-2.24 -3.648,0 -5.696,1.92 -2.048,1.856 -2.048,6.208 v 10.24 q 0,4.288 2.048,6.208 2.048,1.92 5.696,1.92 z"
         style="opacity:1;fill:#d47e51"
         id="path2941" />
      <path
         d="m 312.7871,57.169389 v -46.72 h 5.76 v 26.048 h 6.72 l 9.856,-14.528 h 6.592 l -11.328,16.768 11.968,18.432 h -6.72 l -10.24,-15.68 h -6.848 v 15.68 z"
         style="opacity:1;fill:#d47e51"
         id="path2943" />
      <path
         d="m 350.41913,53.009389 v -5.568 l 19.84,-9.728 q 1.216,-0.576 2.24,-0.96 1.088,-0.448 1.6,-0.576 -0.576,-0.128 -1.664,-0.576 -1.088,-0.448 -2.176,-0.96 l -19.84,-9.792 v -5.76 l 27.52,13.76 v 6.4 z"
         style="fill:#3585dc"
         id="path2945" />
    </g>
  </g>
</svg>
